<?xml version="1.0" encoding="UTF-8" standalone="no"?>
<!DOCTYPE svg PUBLIC "-//W3C//DTD SVG 1.1//EN"
 "http://www.w3.org/Graphics/SVG/1.1/DTD/svg11.dtd">
<!-- Generated by graphviz version 2.43.0 (0)
 -->
<!-- Title: %3 Pages: 1 -->
<svg width="446pt" height="499pt"
 viewBox="0.00 0.00 445.98 498.74" xmlns="http://www.w3.org/2000/svg" xmlns:xlink="http://www.w3.org/1999/xlink">
<g id="graph0" class="graph" transform="scale(1 1) rotate(0) translate(4 494.74)">
<title>%3</title>
<polygon fill="white" stroke="transparent" points="-4,4 -4,-494.74 441.98,-494.74 441.98,4 -4,4"/>
<!-- Cart Pos -->
<g id="node1" class="node">
<title>Cart Pos</title>
<polygon fill="lightgray" stroke="black" points="255.99,-490.74 199.99,-490.74 199.99,-472.74 255.99,-472.74 255.99,-490.74"/>
<text text-anchor="middle" x="227.99" y="-479.54" font-family="Times,serif" font-size="9.00">Cart Pos</text>
</g>
<!-- 1041 -->
<g id="node11" class="node">
<title>1041</title>
<ellipse fill="white" stroke="black" cx="146.99" cy="-407.75" rx="28.98" ry="28.98"/>
<text text-anchor="middle" x="146.99" y="-405.55" font-family="Times,serif" font-size="9.00">1041</text>
</g>
<!-- Cart Pos&#45;&gt;1041 -->
<g id="edge8" class="edge">
<title>Cart Pos&#45;&gt;1041</title>
<path fill="none" stroke="green" stroke-width="0.16" d="M218.7,-472.48C208.3,-463.24 190.92,-447.79 175.88,-434.43"/>
<polygon fill="green" stroke="green" stroke-width="0.16" points="178.08,-431.7 168.28,-427.67 173.43,-436.93 178.08,-431.7"/>
</g>
<!-- Cart Vel -->
<g id="node2" class="node">
<title>Cart Vel</title>
<polygon fill="lightgray" stroke="black" points="359.99,-225.96 305.99,-225.96 305.99,-207.96 359.99,-207.96 359.99,-225.96"/>
<text text-anchor="middle" x="332.99" y="-214.76" font-family="Times,serif" font-size="9.00">Cart Vel</text>
</g>
<!-- 3347 -->
<g id="node13" class="node">
<title>3347</title>
<ellipse fill="white" stroke="black" cx="332.99" cy="-122.97" rx="28.98" ry="28.98"/>
<text text-anchor="middle" x="332.99" y="-120.77" font-family="Times,serif" font-size="9.00">3347</text>
</g>
<!-- Cart Vel&#45;&gt;3347 -->
<g id="edge11" class="edge">
<title>Cart Vel&#45;&gt;3347</title>
<path fill="none" stroke="green" stroke-width="0.75" d="M332.99,-207.79C332.99,-197.53 332.99,-179.19 332.99,-162.28"/>
<polygon fill="green" stroke="green" stroke-width="0.75" points="336.49,-162.02 332.99,-152.02 329.49,-162.02 336.49,-162.02"/>
</g>
<!-- Pole Angle -->
<g id="node3" class="node">
<title>Pole Angle</title>
<polygon fill="lightgray" stroke="black" points="181.99,-490.74 115.99,-490.74 115.99,-472.74 181.99,-472.74 181.99,-490.74"/>
<text text-anchor="middle" x="148.99" y="-479.54" font-family="Times,serif" font-size="9.00">Pole Angle</text>
</g>
<!-- Pole Angle&#45;&gt;1041 -->
<g id="edge2" class="edge">
<title>Pole Angle&#45;&gt;1041</title>
<path fill="none" stroke="green" stroke-width="1.61" d="M148.76,-472.48C148.58,-466.01 148.32,-456.51 148.05,-446.81"/>
<polygon fill="green" stroke="green" stroke-width="1.61" points="151.55,-446.64 147.77,-436.75 144.55,-446.84 151.55,-446.64"/>
</g>
<!-- Pole Vel -->
<g id="node4" class="node">
<title>Pole Vel</title>
<polygon fill="lightgray" stroke="black" points="97.49,-490.74 44.49,-490.74 44.49,-472.74 97.49,-472.74 97.49,-490.74"/>
<text text-anchor="middle" x="70.99" y="-479.54" font-family="Times,serif" font-size="9.00">Pole Vel</text>
</g>
<!-- Force -->
<g id="node5" class="node">
<title>Force</title>
<ellipse fill="lightblue" stroke="black" cx="85.99" cy="-312.35" rx="30.31" ry="30.31"/>
<text text-anchor="middle" x="85.99" y="-310.15" font-family="Times,serif" font-size="9.00">Force</text>
</g>
<!-- Pole Vel&#45;&gt;Force -->
<g id="edge1" class="edge">
<title>Pole Vel&#45;&gt;Force</title>
<path fill="none" stroke="green" stroke-width="1.86" d="M71.71,-472.67C73.62,-451.45 78.86,-392.99 82.43,-353.11"/>
<polygon fill="green" stroke="green" stroke-width="1.86" points="85.94,-353.17 83.34,-342.9 78.97,-352.55 85.94,-353.17"/>
</g>
<!-- Pole Vel&#45;&gt;1041 -->
<g id="edge4" class="edge">
<title>Pole Vel&#45;&gt;1041</title>
<path fill="none" stroke="green" stroke-width="0.23" d="M79.71,-472.48C89.25,-463.45 105.04,-448.49 118.92,-435.34"/>
<polygon fill="green" stroke="green" stroke-width="0.23" points="121.54,-437.68 126.39,-428.27 116.72,-432.6 121.54,-437.68"/>
</g>
<!-- 2513 -->
<g id="node12" class="node">
<title>2513</title>
<ellipse fill="white" stroke="black" cx="85.99" cy="-216.96" rx="28.98" ry="28.98"/>
<text text-anchor="middle" x="85.99" y="-214.76" font-family="Times,serif" font-size="9.00">2513</text>
</g>
<!-- Force&#45;&gt;2513 -->
<g id="edge6" class="edge">
<title>Force&#45;&gt;2513</title>
<path fill="none" stroke="green" stroke-width="0.41" d="M85.99,-281.8C85.99,-273.67 85.99,-264.74 85.99,-256.19"/>
<polygon fill="green" stroke="green" stroke-width="0.41" points="89.49,-256.04 85.99,-246.04 82.49,-256.04 89.49,-256.04"/>
</g>
<!-- 1507 -->
<g id="node6" class="node">
<title>1507</title>
<ellipse fill="white" stroke="black" cx="408.99" cy="-122.97" rx="28.98" ry="28.98"/>
<text text-anchor="middle" x="408.99" y="-120.77" font-family="Times,serif" font-size="9.00">1507</text>
</g>
<!-- 2139 -->
<g id="node15" class="node">
<title>2139</title>
<ellipse fill="white" stroke="black" cx="332.99" cy="-28.99" rx="28.98" ry="28.98"/>
<text text-anchor="middle" x="332.99" y="-26.79" font-family="Times,serif" font-size="9.00">2139</text>
</g>
<!-- 1507&#45;&gt;2139 -->
<g id="edge9" class="edge">
<title>1507&#45;&gt;2139</title>
<path fill="none" stroke="green" stroke-width="0.18" stroke-dasharray="1,5" d="M390.98,-100.18C381.02,-88.12 368.5,-72.97 357.64,-59.83"/>
<polygon fill="green" stroke="green" stroke-width="0.18" points="360.2,-57.43 351.14,-51.95 354.81,-61.89 360.2,-57.43"/>
</g>
<!-- 3588 -->
<g id="node7" class="node">
<title>3588</title>
<ellipse fill="white" stroke="black" cx="28.99" cy="-122.97" rx="28.98" ry="28.98"/>
<text text-anchor="middle" x="28.99" y="-120.77" font-family="Times,serif" font-size="9.00">3588</text>
</g>
<!-- 3209 -->
<g id="node9" class="node">
<title>3209</title>
<ellipse fill="white" stroke="black" cx="85.99" cy="-28.99" rx="28.98" ry="28.98"/>
<text text-anchor="middle" x="85.99" y="-26.79" font-family="Times,serif" font-size="9.00">3209</text>
</g>
<!-- 3588&#45;&gt;3209 -->
<g id="edge15" class="edge">
<title>3588&#45;&gt;3209</title>
<path fill="none" stroke="red" stroke-width="0.21" d="M43.97,-97.81C50.64,-87.03 58.61,-74.18 65.8,-62.57"/>
<polygon fill="red" stroke="red" stroke-width="0.21" points="68.82,-64.34 71.12,-54 62.87,-60.65 68.82,-64.34"/>
</g>
<!-- 3175 -->
<g id="node8" class="node">
<title>3175</title>
<ellipse fill="white" stroke="black" cx="256.99" cy="-216.96" rx="28.98" ry="28.98"/>
<text text-anchor="middle" x="256.99" y="-214.76" font-family="Times,serif" font-size="9.00">3175</text>
</g>
<!-- 2096 -->
<g id="node10" class="node">
<title>2096</title>
<ellipse fill="white" stroke="black" cx="142.99" cy="-122.97" rx="28.98" ry="28.98"/>
<text text-anchor="middle" x="142.99" y="-120.77" font-family="Times,serif" font-size="9.00">2096</text>
</g>
<!-- 3175&#45;&gt;2096 -->
<g id="edge16" class="edge">
<title>3175&#45;&gt;2096</title>
<path fill="none" stroke="green" stroke-width="0.11" d="M234.74,-198C217.16,-183.82 192.46,-163.89 173.11,-148.28"/>
<polygon fill="green" stroke="green" stroke-width="0.11" points="175.17,-145.44 165.19,-141.88 170.77,-150.89 175.17,-145.44"/>
</g>
<!-- 2808 -->
<g id="node14" class="node">
<title>2808</title>
<ellipse fill="white" stroke="black" cx="256.99" cy="-122.97" rx="28.98" ry="28.98"/>
<text text-anchor="middle" x="256.99" y="-120.77" font-family="Times,serif" font-size="9.00">2808</text>
</g>
<!-- 3175&#45;&gt;2808 -->
<g id="edge13" class="edge">
<title>3175&#45;&gt;2808</title>
<path fill="none" stroke="green" stroke-width="0.25" d="M256.99,-187.86C256.99,-179.82 256.99,-170.92 256.99,-162.38"/>
<polygon fill="green" stroke="green" stroke-width="0.25" points="260.49,-162.22 256.99,-152.22 253.49,-162.22 260.49,-162.22"/>
</g>
<!-- 1041&#45;&gt;Force -->
<g id="edge3" class="edge">
<title>1041&#45;&gt;Force</title>
<path fill="none" stroke="green" stroke-width="0.92" d="M131.6,-383.18C124.38,-372.14 115.66,-358.78 107.79,-346.72"/>
<polygon fill="green" stroke="green" stroke-width="0.92" points="110.63,-344.68 102.23,-338.22 104.77,-348.51 110.63,-344.68"/>
</g>
<!-- 1041&#45;&gt;3209 -->
<g id="edge17" class="edge">
<title>1041&#45;&gt;3209</title>
<path fill="none" stroke="red" stroke-width="0.28" d="M159.07,-380.99C183.43,-325.02 231.92,-189.7 180.99,-93.98 168.62,-70.74 143.64,-54.42 122.39,-44.08"/>
<polygon fill="red" stroke="red" stroke-width="0.28" points="123.81,-40.88 113.26,-39.88 120.88,-47.24 123.81,-40.88"/>
</g>
<!-- 1041&#45;&gt;2096 -->
<g id="edge18" class="edge">
<title>1041&#45;&gt;2096</title>
<path fill="none" stroke="red" stroke-width="0.21" d="M146.59,-378.6C145.87,-327.58 144.35,-219.76 143.53,-162.15"/>
<polygon fill="red" stroke="red" stroke-width="0.21" points="147.03,-161.96 143.39,-152.01 140.03,-162.06 147.03,-161.96"/>
</g>
<!-- 2513&#45;&gt;3588 -->
<g id="edge14" class="edge">
<title>2513&#45;&gt;3588</title>
<path fill="none" stroke="red" stroke-width="0.29" d="M71.02,-191.79C64.34,-181.02 56.37,-168.16 49.18,-156.56"/>
<polygon fill="red" stroke="red" stroke-width="0.29" points="52.11,-154.64 43.87,-147.98 46.16,-158.32 52.11,-154.64"/>
</g>
<!-- 2513&#45;&gt;3209 -->
<g id="edge10" class="edge">
<title>2513&#45;&gt;3209</title>
<path fill="none" stroke="red" stroke-width="0.3" d="M85.99,-187.71C85.99,-155.94 85.99,-104.16 85.99,-68.65"/>
<polygon fill="red" stroke="red" stroke-width="0.3" points="89.49,-68.2 85.99,-58.2 82.49,-68.2 89.49,-68.2"/>
</g>
<!-- 2513&#45;&gt;2096 -->
<g id="edge7" class="edge">
<title>2513&#45;&gt;2096</title>
<path fill="none" stroke="red" stroke-width="0.35" stroke-dasharray="1,5" d="M100.97,-191.79C107.64,-181.02 115.61,-168.16 122.8,-156.56"/>
<polygon fill="red" stroke="red" stroke-width="0.35" points="125.82,-158.32 128.12,-147.98 119.87,-154.64 125.82,-158.32"/>
</g>
<!-- 3347&#45;&gt;2139 -->
<g id="edge12" class="edge">
<title>3347&#45;&gt;2139</title>
<path fill="none" stroke="red" stroke-width="0.41" d="M332.99,-93.88C332.99,-85.84 332.99,-76.94 332.99,-68.39"/>
<polygon fill="red" stroke="red" stroke-width="0.41" points="336.49,-68.23 332.99,-58.23 329.49,-68.23 336.49,-68.23"/>
</g>
<!-- 2808&#45;&gt;2139 -->
<g id="edge5" class="edge">
<title>2808&#45;&gt;2139</title>
<path fill="none" stroke="red" stroke-width="0.23" d="M275,-100.18C284.96,-88.12 297.48,-72.97 308.34,-59.83"/>
<polygon fill="red" stroke="red" stroke-width="0.23" points="311.17,-61.89 314.85,-51.95 305.78,-57.43 311.17,-61.89"/>
</g>
</g>
</svg>
